<?xml version="1.0" encoding="UTF-8"?>
<svg width="24px" height="24px" viewBox="0 0 24 24" stroke-width="1.5" fill="none" xmlns="http://www.w3.org/2000/svg">
  <path d="M6 3H18C19.1046 3 20 3.89543 20 5V19C20 20.1046 19.1046 21 18 21H6C4.89543 21 4 20.1046 4 19V5C4 3.89543 4.89543 3 6 3Z" stroke="currentColor" stroke-linecap="round" stroke-linejoin="round"/>
  <path d="M12 10C13.1046 10 14 9.10457 14 8C14 6.89543 13.1046 6 12 6C10.8954 6 10 6.89543 10 8C10 9.10457 10.8954 10 12 10Z" stroke="currentColor" stroke-linecap="round" stroke-linejoin="round"/>
  <path d="M8 18V17C8 15.3431 9.34315 14 11 14H13C14.6569 14 16 15.3431 16 17V18" stroke="currentColor" stroke-linecap="round" stroke-linejoin="round"/>
</svg> 